PathFileType	3	(X/Y/Z)	D:\minhoCalibration\240510\subject2_KPNP\preferred\preferred05.trc
DataRate	CameraRate	NumFrames	NumMarkers	Units	OrigDataRate	OrigDataStartFrame	OrigNumFrames
200.0	200.0	24	10	mm	200.0	847	244	
Frame#	Time	Left_Ankle_Outer1			Left_Ankle_Inner1			Left_Knee_Outer1			Left_Knee_Inner1			Left_Wrist1			Right_Wrist1			Right_Knee_Inner1			Right_Knee_Outer1			Right_Ankle_Inner1			Right_Ankle_Outer1			
		X1	Y1	Z1	X2	Y2	Z2	X3	Y3	Z3	X4	Y4	Z4	X5	Y5	Z5	X6	Y6	Z6	X7	Y7	Z7	X8	Y8	Z8	X9	Y9	Z9	X10	Y10	Z10	
847	4.225	-549.28168	91.548836	-787.41144	-562.78534	100.67075	-731.94489	-338.43558	499.06818	-799.05121	-382.8252	486.36157	-711.12512	-370.24081	967.88586	-876.06342	-610.01434	1081.9797	-650.84015	-739.87091	663.81708	-374.60632	-802.36139	747.45679	-380.44412	-842.55157	572.01129	-773.599	-915.79712	637.84253	-770.48297
848	4.23	-549.86945	91.966949	-786.86743	-562.4751	101.27091	-731.03375	-339.39117	499.55762	-803.28058	-380.75323	487.18365	-713.789	-373.42236	967.15723	-879.68518	-602.36945	1086.6039	-646.04681	-727.50525	676.14386	-356.6243	-787.7998	760.76825	-362.28122	-843.57898	589.48059	-753.79663	-915.38708	657.34851	-747.32239
849	4.235	-550.36578	91.962769	-785.47455	-561.98279	102.27571	-729.71545	-340.26987	500.17221	-807.62213	-378.80692	487.5575	-716.54517	-376.60223	966.41632	-883.32965	-594.724	1091.2002	-641.67224	-713.96484	688.53296	-339.513	-774.24506	776.61523	-339.53189	-845.08142	606.77478	-733.28156	-914.94482	676.63367	-723.8374
850	4.24	-551.12091	92.963058	-785.20013	-561.62659	103.10677	-728.75348	-341.15918	500.59427	-812.02936	-376.29028	487.68048	-719.5824	-380.67282	965.15472	-886.86731	-587.13721	1095.6642	-637.64124	-699.9884	701.78528	-322.58542	-757.89099	791.04968	-322.00504	-846.77606	623.92438	-712.01422	-914.48682	695.17639	-699.7998
851	4.245	-551.80328	93.703148	-784.33221	-561.61505	103.26814	-729.01892	-341.50064	501.51895	-816.74353	-373.58823	487.9455	-722.57739	-384.81345	964.11072	-890.20813	-579.71753	1100.2074	-634.0105	-684.87787	714.54974	-307.63684	-739.82849	805.37701	-306.66797	-848.55365	640.65588	-689.9826	-913.47235	713.97211	-676.01178
852	4.25	-552.30151	94.166641	-782.77832	-560.90332	103.33752	-730.66003	-342.84219	501.41013	-821.02814	-370.20523	487.77625	-725.62024	-389.51248	962.88586	-893.25793	-572.24323	1104.4454	-630.78833	-669.22345	728.43231	-291.51706	-721.29193	819.98871	-291.66556	-851.15125	656.76428	-665.9209	-912.21503	732.13873	-651.33105
853	4.255	-552.7309	95.03215	-781.47772	-559.91095	107.28089	-724.11499	-343.56351	501.72626	-825.52466	-366.72528	487.42892	-728.87079	-394.66144	961.46936	-896.03394	-564.8949	1108.5728	-627.85754	-653.04926	742.31659	-276.34351	-701.65985	835.51996	-276.49176	-853.03479	673.72699	-643.31726	-911.26135	750.72479	-625.10608
854	4.26	-553.02094	96.394066	-780.32214	-558.93048	107.17129	-725.93201	-344.30243	502.12622	-829.90167	-363.21866	487.19928	-732.37988	-399.84979	960.04901	-899.01141	-557.97375	1112.51	-625.2514	-635.87744	756.53278	-262.61093	-681.6026	851.7196	-260.95111	-855.6535	688.72083	-617.23798	-909.82361	768.79755	-598.90515
855	4.265	-553.05219	97.250771	-778.28247	-558.08081	108.80728	-723.03558	-344.98856	502.8819	-834.12775	-359.28506	487.29907	-736.104	-405.81326	958.29932	-901.08472	-550.73926	1116.2888	-623.22076	-618.00818	770.88739	-249.985	-660.64111	868.0741	-246.85361	-858.03491	704.12866	-591.11993	-908.14105	786.55695	-571.91431
856	4.27	-553.10437	98.833229	-776.98535	-556.39856	109.59186	-723.08911	-346.42691	503.3313	-837.57703	-355.50043	487.43958	-739.79987	-412.38058	956.30084	-902.89435	-544.02533	1119.9481	-621.31689	-599.48718	785.31427	-238.46393	-638.90057	883.56726	-235.06898	-860.15161	719.86615	-566.23401	-906.09692	803.6698	-544.61499
857	4.275	-552.8255	99.887428	-775.3717	-554.96851	112.58899	-717.85773	-347.64868	504.09424	-840.85468	-351.93213	487.9621	-743.50452	-418.72549	954.65527	-904.61353	-537.44647	1123.2097	-619.77759	-580.43341	799.76318	-228.3441	-615.94678	898.53491	-226.24318	-862.45032	734.29999	-538.00269	-904.08429	820.21417	-516.09894
858	4.28	-552.52069	101.13461	-773.6546	-553.63214	112.61699	-718.94971	-349.44922	504.92352	-843.23816	-348.94254	488.75754	-746.93677	-425.90408	952.45819	-905.55298	-531.28546	1126.4779	-618.37054	-561.20911	814.16241	-219.19249	-592.4278	914.35809	-217.61243	-864.05817	749.39917	-507.97653	-901.68713	836.99609	-486.28693
859	4.285	-552.08411	102.01091	-771.56433	-552.82324	113.1058	-718.35071	-351.34335	505.8353	-845.09503	-346.55725	489.91333	-749.82971	-432.67618	950.67505	-906.8385	-524.59052	1129.6642	-617.30609	-541.36517	828.34644	-212.00713	-569.90332	928.93805	-210.33072	-864.5838	764.97723	-477.69403	-898.85736	853.55804	-454.98697
860	4.29	-551.9115	103.05807	-769.79364	-551.37378	116.18248	-712.73187	-352.74844	507.04367	-846.87579	-345.1153	491.08994	-751.9115	-440.40585	948.25647	-906.85205	-519.29517	1132.3436	-616.61615	-521.93915	842.17065	-205.36775	-546.37067	943.01782	-206.06493	-865.62201	779.11798	-443.73416	-895.57257	869.49921	-422.47824
861	4.295	-551.99579	104.46682	-768.46417	-550.59235	115.81182	-714.30579	-354.94589	507.91275	-847.45203	-344.52383	492.40524	-753.10706	-447.34756	946.58673	-907.38312	-513.8595	1134.8657	-616.05762	-502.50226	855.67236	-200.24203	-524.16772	956.30579	-202.11417	-864.51636	793.84491	-409.70267	-891.14142	885.24988	-388.83441
862	4.3	-552.00677	105.3412	-766.927	-550.10675	116.59382	-712.89844	-356.66583	509.01633	-847.81409	-344.76837	493.78665	-753.44653	-454.96054	944.35004	-906.7605	-508.74872	1137.1691	-615.75299	-483.26462	868.54773	-196.54483	-501.48587	968.81952	-200.67181	-862.83392	808.48767	-373.94809	-885.78369	900.61639	-353.93713
863	4.305	-552.21259	106.06997	-765.44629	-549.70245	118.79934	-708.13043	-358.20691	510.13501	-847.88354	-345.81702	495.04449	-753.07996	-461.86917	942.77075	-906.69879	-503.73303	1139.3629	-615.58942	-464.30914	880.84534	-194.2587	-479.95752	980.50903	-200.50545	-859.77563	823.52954	-335.34586	-879.01062	916.19641	-315.87024
864	4.31	-552.43573	106.59502	-764.1153	-549.4762	117.89337	-710.22131	-359.85654	511.03122	-847.28473	-347.42188	496.32404	-752.1297	-468.86688	941.1037	-905.65509	-498.85205	1141.42	-615.43896	-446.159	892.34808	-193.07083	-459.52338	990.97827	-201.81319	-854.37854	838.77441	-295.87662	-870.07782	931.93213	-277.43463
865	4.315	-552.78345	106.92763	-762.97675	-549.59949	119.86839	-705.85339	-361.09821	512.16174	-846.56641	-349.73477	497.45831	-750.59442	-475.82794	939.39093	-904.09637	-494.49423	1143.2424	-615.73029	-428.84253	902.94696	-193.17805	-440.49258	1000.4072	-204.30023	-846.54138	853.90912	-254.69193	-859.08856	947.40289	-237.30717
866	4.32	-553.24762	107.15435	-762.00104	-550.29163	117.53002	-708.72345	-362.61108	513.1377	-845.26062	-352.36765	498.69589	-748.82642	-481.89526	938.25854	-903.3869	-490.69128	1144.9115	-616.31732	-412.65024	912.80499	-194.30878	-423.04013	1008.774	-207.70459	-835.7514	869.1839	-212.46309	-845.28979	962.90985	-196.1814
867	4.325	-553.77368	107.12312	-761.11078	-550.50775	120.03216	-703.01611	-364.15475	514.09943	-843.69067	-355.59055	499.6268	-746.55768	-487.98477	936.90869	-901.86078	-487.26089	1146.4924	-617.02594	-398.13052	921.81079	-196.7953	-407.99518	1016.1562	-211.51198	-822.05762	884.36761	-170.12407	-828.32739	978.14227	-154.2851
868	4.33	-554.35327	106.88467	-760.35486	-550.62738	118.30264	-705.08008	-365.95206	514.93811	-841.66083	-359.06363	500.31686	-744.07019	-493.22449	936.17297	-900.81049	-483.87759	1148.0872	-617.7041	-385.37311	929.58441	-199.70097	-394.27151	1022.6598	-216.0527	-805.52979	896.90344	-122.10278	-808.58319	993.13348	-112.34334
869	4.335	-554.95782	106.65757	-759.70685	-551.69647	119.14906	-701.69653	-367.73895	515.83417	-839.5954	-362.80484	500.85562	-741.36646	-498.22168	935.3952	-899.487	-481.52625	1149.4114	-618.65924	-374.63092	936.29218	-203.01132	-382.87308	1028.1552	-220.71436	-784.55225	909.80371	-73.62822	-785.21613	1008.1552	-70.002663
870	4.34	-555.60785	106.33494	-759.05969	-553.03833	116.62077	-703.84113	-369.38693	516.72314	-837.52307	-366.69522	501.23917	-738.55328	-502.90228	934.70758	-897.61816	-479.43448	1150.7728	-619.45782	-366.19437	942.01337	-206.58655	-373.95294	1032.8392	-225.17603	-758.73041	924.1886	-30.609144	-758.1073	1023.124	-28.518661
